<svg width="56" height="54" viewBox="0 0 56 54" fill="none" xmlns="http://www.w3.org/2000/svg">
<circle cx="33.0593" cy="32" r="22" fill="url(#paint0_linear_427_46403)"/>
<g clip-path="url(#clip0_427_46403)">
<mask id="mask0_427_46403" style="mask-type:luminance" maskUnits="userSpaceOnUse" x="0" y="0" width="38" height="38">
<path d="M38 0H0V38H38V0Z" fill="white"/>
</mask>
<g mask="url(#mask0_427_46403)">
<path d="M0.744171 11.5267H34.5483" stroke="#142215" stroke-width="1.5" stroke-linecap="round" stroke-linejoin="round"/>
<path d="M6.94292 8.36799C7.91667 8.36799 8.70834 7.57632 8.70834 6.60257C8.70834 5.62882 7.91667 4.83716 6.94292 4.83716C5.96917 4.83716 5.17751 5.62882 5.17751 6.60257C5.17751 7.57632 5.96917 8.36799 6.94292 8.36799Z" stroke="#142215" stroke-width="1.5" stroke-linecap="round" stroke-linejoin="round"/>
<path d="M22.2617 4.84497H28.9037C29.8775 4.84497 30.6692 5.63664 30.6692 6.61039C30.6692 7.58414 29.8775 8.3758 28.9037 8.3758H22.2617C21.2879 8.3758 20.4962 7.58414 20.4962 6.61039C20.4962 5.63664 21.2879 4.84497 22.2617 4.84497Z" stroke="#142215" stroke-width="1.5" stroke-linecap="round" stroke-linejoin="round"/>
<path d="M13.4504 8.36799C14.4242 8.36799 15.2158 7.57632 15.2158 6.60257C15.2158 5.62882 14.4242 4.83716 13.4504 4.83716C12.4767 4.83716 11.685 5.62882 11.685 6.60257C11.685 7.57632 12.4767 8.36799 13.4504 8.36799Z" stroke="#142215" stroke-width="1.5" stroke-linecap="round" stroke-linejoin="round"/>
<path d="M12.0571 17.2346L10.5688 23.4492" stroke="#142215" stroke-width="1.5" stroke-linecap="round" stroke-linejoin="round"/>
<path d="M15.4771 22.887L17.575 20.5279C17.67 20.425 17.67 20.2587 17.575 20.1558L15.4771 17.7966" stroke="#142215" stroke-width="1.5" stroke-linecap="round" stroke-linejoin="round"/>
<path d="M7.14875 22.887L5.05083 20.5279C4.95583 20.425 4.95583 20.2587 5.05083 20.1558L7.14875 17.7966" stroke="#142215" stroke-width="1.5" stroke-linecap="round" stroke-linejoin="round"/>
<path d="M30.02 20.5201C30.8354 20.7022 31.5954 21.0188 32.2762 21.4463L32.8858 20.8447C33.2421 20.4805 33.8358 20.4805 34.2 20.8447L35.1579 21.8026C35.5221 22.1667 35.5221 22.7526 35.1579 23.1167L34.5483 23.7263C34.9837 24.4151 35.2925 25.1672 35.4746 25.9588H36.3296C36.8442 25.9588 37.2558 26.3784 37.2558 26.8851V28.2388C37.2558 28.7455 36.8362 29.1651 36.3296 29.1651H35.4746C35.2925 29.9488 34.9837 30.7009 34.5562 31.3817L35.1658 31.9834C35.53 32.3476 35.53 32.9334 35.1658 33.2976L34.2079 34.2555C33.8437 34.6197 33.2579 34.6197 32.8937 34.2555L32.2842 33.6538C31.5954 34.0813 30.8433 34.398 30.0517 34.5801V35.443C30.0517 35.9576 29.6321 36.3692 29.1254 36.3692H27.7717C27.265 36.3692 26.8454 35.9497 26.8454 35.443V34.5801C26.0458 34.398 25.2937 34.0813 24.6208 33.6617L24.0112 34.2634C23.6471 34.6276 23.0612 34.6276 22.6971 34.2634L21.7392 33.3055C21.3829 32.9492 21.3829 32.3555 21.7392 31.9913L22.3487 31.3897C21.9212 30.7088 21.6046 29.9567 21.4225 29.173H20.5596C20.045 29.173 19.6333 28.7534 19.6333 28.2467V26.893C19.6333 26.3863 20.0529 25.9667 20.5596 25.9667H21.4146C21.5887 25.183 21.8975 24.4388 22.325 23.758L21.7154 23.1484C21.3512 22.7922 21.3512 22.1984 21.7154 21.8342L22.6733 20.8763C23.0375 20.5122 23.6233 20.5122 23.9875 20.8763L24.5892 21.478C25.27 21.0426 26.0221 20.7338 26.8137 20.5438V19.6888C26.8137 19.1742 27.2333 18.7626 27.74 18.7626H29.0937C29.6083 18.7626 30.02 19.1822 30.02 19.6888V20.528V20.5201Z" stroke="#142215" stroke-width="1.5" stroke-linecap="round" stroke-linejoin="round"/>
<path d="M28.4446 23.7341C30.5583 23.7341 32.2683 25.4441 32.2683 27.5579C32.2683 29.6716 30.5583 31.3816 28.4446 31.3816C26.3308 31.3816 24.6208 29.6716 24.6208 27.5579C24.6208 25.4441 26.3308 23.7341 28.4446 23.7341Z" stroke="#142215" stroke-width="1.5" stroke-linecap="round" stroke-linejoin="round"/>
<path d="M7.90084 29.165H3.50709C1.98709 29.165 0.744171 27.6767 0.744171 25.8638V4.93211C0.744171 3.11919 1.98709 1.63086 3.50709 1.63086H31.7854C33.3054 1.63086 34.5483 3.11919 34.5483 4.93211V21.1929M20.5517 29.165H14.5271" stroke="#142215" stroke-width="1.5" stroke-linecap="round" stroke-linejoin="round"/>
<path d="M11.2258 29.165H11.2417" stroke="#142215" stroke-width="1.5" stroke-linecap="round" stroke-linejoin="round"/>
</g>
</g>
<defs>
<linearGradient id="paint0_linear_427_46403" x1="47.8441" y1="48.5" x2="16.4941" y2="12.2" gradientUnits="userSpaceOnUse">
<stop stop-color="#2AA136"/>
<stop offset="1" stop-color="#2AA136" stop-opacity="0"/>
</linearGradient>
<clipPath id="clip0_427_46403">
<rect width="38" height="38" fill="white"/>
</clipPath>
</defs>
</svg>
